<svg width="20" height="20" viewBox="0 0 20 20" fill="none" xmlns="http://www.w3.org/2000/svg">
<path fill-rule="evenodd" clip-rule="evenodd" d="M8.10499 3.84001C8.09428 3.84953 8.08355 3.85908 8.07278 3.86865L4.72793 6.84185C4.10381 7.39659 3.58643 7.85646 3.23119 8.27392C2.85783 8.71268 2.59198 9.18505 2.59198 9.76958C2.59198 10.3541 2.85783 10.8265 3.23118 11.2652C3.58642 11.6827 4.1038 12.1426 4.72793 12.6973L8.07278 15.6705C8.08355 15.6801 8.09429 15.6896 8.10499 15.6992C8.37535 15.9395 8.62767 16.1639 8.84566 16.3078C9.05972 16.4492 9.44898 16.6545 9.88504 16.4586C10.3211 16.2628 10.4263 15.8355 10.4629 15.5816C10.5001 15.3231 10.5001 14.9854 10.5 14.6236C10.5 14.6093 10.5 14.5949 10.5 14.5805V13.2734C11.7096 13.3568 12.9353 13.678 14.0075 14.2005C15.2683 14.8148 16.2752 15.6859 16.8216 16.7268C16.9553 16.9814 17.2454 17.1119 17.5246 17.0431C17.8038 16.9742 18 16.7238 18 16.4362C18 12.5021 16.8489 9.94047 15.2029 8.36562C13.7682 6.99291 12.0197 6.42964 10.5 6.31176V4.95862C10.5 4.94422 10.5 4.92985 10.5 4.91552C10.5001 4.55375 10.5001 4.2161 10.4629 3.95756C10.4263 3.70366 10.3211 3.27634 9.88504 3.08052C9.44898 2.8847 9.05972 3.09 8.84566 3.23133C8.62767 3.37526 8.37535 3.59962 8.10499 3.84001ZM9.24742 4.50038C9.1532 4.58113 9.0407 4.68072 8.90324 4.80291L5.59299 7.74535C4.92542 8.33875 4.47498 8.74108 4.18317 9.084C3.90293 9.41334 3.84198 9.60567 3.84198 9.76958C3.84198 9.93349 3.90292 10.1258 4.18316 10.4552C4.47498 10.7981 4.92541 11.2004 5.59299 11.7938L8.90324 14.7363C9.0407 14.8584 9.1532 14.958 9.24742 15.0388C9.24967 14.9147 9.24998 14.7645 9.24998 14.5805V12.6267C9.24998 12.2815 9.5298 12.0017 9.87498 12.0017C11.4688 12.0017 13.125 12.38 14.555 13.0768C15.3207 13.4499 16.0335 13.9205 16.6384 14.4836C16.3311 11.9444 15.423 10.3062 14.3388 9.26879C12.9887 7.97706 11.283 7.53744 9.87498 7.53744C9.5298 7.53744 9.24998 7.25762 9.24998 6.91244V4.95862C9.24998 4.7747 9.24967 4.62445 9.24742 4.50038Z" fill="#E68528"/>
</svg>
