<svg width="21" height="21" viewBox="0 0 21 21" fill="none" xmlns="http://www.w3.org/2000/svg">
<path fill-rule="evenodd" clip-rule="evenodd" d="M4.76399 6.95975C5.1084 6.93679 5.40622 7.19738 5.42918 7.54179L5.81246 13.2911C5.88735 14.4143 5.9407 15.1958 6.05784 15.7838C6.17147 16.3542 6.33008 16.6561 6.55792 16.8692C6.78577 17.0824 7.09756 17.2206 7.67423 17.296C8.26873 17.3738 9.05207 17.375 10.1778 17.375H10.8223C11.948 17.375 12.7313 17.3738 13.3258 17.296C13.9025 17.2206 14.2143 17.0824 14.4421 16.8692C14.67 16.6561 14.8286 16.3542 14.9422 15.7838C15.0593 15.1958 15.1127 14.4143 15.1876 13.2911L15.5709 7.54179C15.5938 7.19738 15.8916 6.93679 16.236 6.95975C16.5805 6.98271 16.8411 7.28053 16.8181 7.62494L16.4319 13.4181C16.3606 14.487 16.3031 15.3505 16.1681 16.028C16.0278 16.7324 15.7891 17.3208 15.2961 17.7821C14.8031 18.2433 14.2001 18.4423 13.4879 18.5355C12.8029 18.6251 11.9375 18.625 10.8662 18.625H10.1338C9.0625 18.625 8.19714 18.6251 7.5121 18.5355C6.79989 18.4423 6.19694 18.2433 5.70394 17.7821C5.21095 17.3208 4.97226 16.7324 4.83193 16.028C4.69695 15.3505 4.6394 14.487 4.56816 13.4181L4.18195 7.62494C4.15899 7.28053 4.41958 6.98271 4.76399 6.95975Z" fill="#EA4335"/>
<path fill-rule="evenodd" clip-rule="evenodd" d="M9.12941 2.37503L9.0911 2.37502C8.91077 2.3749 8.75367 2.3748 8.60532 2.39849C8.01923 2.49208 7.51207 2.85762 7.23795 3.38403C7.16856 3.51728 7.11897 3.66636 7.06206 3.83747L7.04996 3.87382L6.96905 4.11654C6.95323 4.16401 6.94882 4.17709 6.94498 4.1877C6.79905 4.59113 6.4207 4.86383 5.99182 4.8747C5.98054 4.87498 5.96673 4.87503 5.9167 4.87503H3.41663C3.07145 4.87503 2.79163 5.15485 2.79163 5.50003C2.79163 5.84521 3.07145 6.12503 3.41663 6.12503H5.92383H5.93778H15.0623H15.0762H17.5834C17.9285 6.12503 18.2084 5.84521 18.2084 5.50003C18.2084 5.15485 17.9285 4.87503 17.5834 4.87503H15.0834C15.0333 4.87503 15.0195 4.87498 15.0082 4.8747C14.5794 4.86383 14.201 4.59111 14.0551 4.18768C14.0513 4.17715 14.0468 4.16378 14.031 4.11654L13.9501 3.87382L13.938 3.83745C13.8811 3.66634 13.8315 3.51727 13.7621 3.38403C13.488 2.85762 12.9808 2.49208 12.3947 2.39849C12.2464 2.3748 12.0893 2.3749 11.909 2.37502L11.8706 2.37503H9.12941ZM8.12044 4.6129C8.08771 4.70337 8.04968 4.79085 8.00675 4.87503H12.9933C12.9504 4.79085 12.9123 4.70338 12.8796 4.61292L12.8474 4.51846L12.7642 4.2691C12.6883 4.04117 12.6708 3.99469 12.6534 3.96137C12.5621 3.7859 12.393 3.66405 12.1976 3.63285C12.1605 3.62693 12.1109 3.62503 11.8706 3.62503H9.12941C8.88915 3.62503 8.83953 3.62693 8.80242 3.63285C8.60706 3.66405 8.43801 3.7859 8.34663 3.96137C8.32928 3.99469 8.31179 4.04118 8.23581 4.2691L8.15264 4.51861C8.14012 4.55619 8.13038 4.58543 8.12044 4.6129Z" fill="#336D7A"/>
</svg>
