<svg width="21" height="21" viewBox="0 0 21 21" fill="none" xmlns="http://www.w3.org/2000/svg">
<path fill-rule="evenodd" clip-rule="evenodd" d="M10.5 1.5415C8.31389 1.5415 6.54169 3.31371 6.54169 5.49984C6.54169 7.68596 8.31389 9.45817 10.5 9.45817C12.6862 9.45817 14.4584 7.68596 14.4584 5.49984C14.4584 3.31371 12.6862 1.5415 10.5 1.5415ZM7.79169 5.49984C7.79169 4.00407 9.00425 2.7915 10.5 2.7915C11.9958 2.7915 13.2084 4.00407 13.2084 5.49984C13.2084 6.99561 11.9958 8.20817 10.5 8.20817C9.00425 8.20817 7.79169 6.99561 7.79169 5.49984Z" fill="#E68528"/>
<path fill-rule="evenodd" clip-rule="evenodd" d="M10.5 10.7082C8.57207 10.7082 6.7958 11.1464 5.47957 11.8868C4.18293 12.6161 3.20836 13.7216 3.20836 15.0832L3.20831 15.1681C3.20737 16.1363 3.20619 17.3515 4.27204 18.2195C4.7966 18.6466 5.53043 18.9504 6.52187 19.1511C7.51608 19.3523 8.81189 19.4582 10.5 19.4582C12.1882 19.4582 13.484 19.3523 14.4782 19.1511C15.4696 18.9504 16.2035 18.6466 16.728 18.2195C17.7939 17.3515 17.7927 16.1363 17.7918 15.1681L17.7917 15.0832C17.7917 13.7216 16.8171 12.6161 15.5205 11.8868C14.2043 11.1464 12.428 10.7082 10.5 10.7082ZM4.45836 15.0832C4.45836 14.3737 4.97618 13.6041 6.0924 12.9763C7.18903 12.3594 8.74609 11.9582 10.5 11.9582C12.254 11.9582 13.811 12.3594 14.9077 12.9763C16.0239 13.6041 16.5417 14.3737 16.5417 15.0832C16.5417 16.173 16.5081 16.7865 15.9387 17.2502C15.6299 17.5016 15.1138 17.7471 14.2302 17.9259C13.3494 18.1042 12.1452 18.2082 10.5 18.2082C8.85484 18.2082 7.65065 18.1042 6.76986 17.9259C5.8863 17.7471 5.37013 17.5016 5.06135 17.2502C4.49196 16.7865 4.45836 16.173 4.45836 15.0832Z" fill="#E68528"/>
</svg>
