<svg width="19" height="17" viewBox="0 0 19 17" fill="none" xmlns="http://www.w3.org/2000/svg">
<g clip-path="url(#clip0_136_29)">
<path fill-rule="evenodd" clip-rule="evenodd" d="M4.16225 2.11569C2.77333 2.76398 1.75581 4.30596 1.75581 6.14473C1.75581 8.02328 2.50865 9.47125 3.58787 10.7122C4.47735 11.7349 5.5541 12.5826 6.6042 13.4092C6.85361 13.6056 7.10152 13.8007 7.34506 13.9968C7.78546 14.3513 8.17832 14.6624 8.55698 14.8884C8.93584 15.1144 9.2408 15.2177 9.5 15.2177C9.7592 15.2177 10.0642 15.1144 10.443 14.8884C10.8217 14.6624 11.2145 14.3513 11.6549 13.9968C11.8985 13.8007 12.1464 13.6056 12.3958 13.4092C13.4459 12.5825 14.5226 11.7349 15.4121 10.7122C16.4914 9.47125 17.2442 8.02328 17.2442 6.14473C17.2442 4.30596 16.2267 2.76398 14.8377 2.11569C13.4884 1.48587 11.6754 1.65266 9.9524 3.48057C9.83403 3.60615 9.67069 3.6771 9.5 3.6771C9.32931 3.6771 9.16597 3.60615 9.0476 3.48057C7.32465 1.65266 5.51159 1.48587 4.16225 2.11569ZM9.5 2.14529C7.56433 0.376872 5.3968 0.129489 3.64017 0.949413C1.78488 1.81539 0.5 3.8262 0.5 6.14473C0.5 8.42348 1.42972 10.1618 2.64888 11.5637C3.6252 12.6863 4.82019 13.6258 5.87557 14.4556C6.11482 14.6437 6.34688 14.8261 6.56761 15.0038C6.99645 15.349 7.45683 15.7172 7.92339 15.9955C8.38974 16.2738 8.92199 16.5 9.5 16.5C10.078 16.5 10.6103 16.2738 11.0766 15.9955C11.5432 15.7171 12.0035 15.349 12.4324 15.0038C12.6531 14.8261 12.8852 14.6437 13.1244 14.4556C14.1798 13.6258 15.3748 12.6863 16.3511 11.5637C17.5703 10.1618 18.5 8.42348 18.5 6.14473C18.5 3.8262 17.2151 1.81539 15.3598 0.949413C13.6032 0.129489 11.4357 0.376872 9.5 2.14529Z" fill="#E68528"/>
</g>
<defs>
<clipPath id="clip0_136_29">
<rect width="18" height="16" fill="white" transform="translate(0.5 0.5)"/>
</clipPath>
</defs>
</svg>
