<svg width="25" height="25" viewBox="0 0 25 25" fill="none" xmlns="http://www.w3.org/2000/svg">
<path d="M5.96967 13.0303C5.67678 12.7374 5.67678 12.2626 5.96967 11.9697L7.96967 9.96967C8.26257 9.67678 8.73744 9.67678 9.03033 9.96967C9.32323 10.2626 9.32323 10.7374 9.03033 11.0303L8.31066 11.75H15.5C15.9142 11.75 16.25 12.0858 16.25 12.5C16.25 12.9142 15.9142 13.25 15.5 13.25H8.31066L9.03033 13.9697C9.32323 14.2626 9.32323 14.7374 9.03033 15.0303C8.73744 15.3232 8.26257 15.3232 7.96967 15.0303L5.96967 13.0303Z" fill="#E68528"/>
<path fill-rule="evenodd" clip-rule="evenodd" d="M14.4453 1.75H15.5551C16.9227 1.74998 18.025 1.74996 18.892 1.86652C19.7921 1.98754 20.55 2.24643 21.1519 2.84835C21.7538 3.45027 22.0127 4.20814 22.1337 5.10825C22.2503 5.97522 22.2502 7.07754 22.2502 8.44513V16.5549C22.2502 17.9225 22.2503 19.0248 22.1337 19.8918C22.0127 20.7919 21.7538 21.5497 21.1519 22.1517C20.55 22.7536 19.7921 23.0125 18.892 23.1335C18.025 23.25 16.9227 23.25 15.5551 23.25H14.4453C13.0778 23.25 11.9754 23.25 11.1085 23.1335C10.2084 23.0125 9.45048 22.7536 8.84857 22.1517C8.44963 21.7527 8.20068 21.2844 8.04305 20.7498C7.09168 20.7486 6.29906 20.7381 5.65689 20.6518C4.89294 20.5491 4.2306 20.3268 3.70191 19.7981C3.17321 19.2694 2.95093 18.6071 2.84822 17.8431C2.74996 17.1123 2.74998 16.1865 2.75 15.0537V9.94631C2.74998 8.81349 2.74996 7.88774 2.84822 7.15689C2.95093 6.39294 3.17321 5.7306 3.70191 5.2019C4.2306 4.67321 4.89294 4.45093 5.65689 4.34822C6.29906 4.26188 7.09168 4.25142 8.04305 4.25017C8.20068 3.71562 8.44963 3.24729 8.84857 2.84835C9.45048 2.24643 10.2084 1.98754 11.1085 1.86652C11.9754 1.74996 13.0778 1.74998 14.4453 1.75ZM7.75197 17.5042C7.75555 18.1487 7.7662 18.7293 7.80285 19.2491C6.96836 19.2459 6.348 19.2312 5.85676 19.1652C5.25914 19.0848 4.96611 18.941 4.76257 18.7374C4.55903 18.5339 4.41519 18.2409 4.33484 17.6432C4.2516 17.0241 4.25 16.1997 4.25 15V10C4.25 8.80029 4.2516 7.97595 4.33484 7.35676C4.41519 6.75914 4.55903 6.4661 4.76257 6.26256C4.96611 6.05902 5.25914 5.91519 5.85676 5.83484C6.348 5.7688 6.96836 5.75415 7.80285 5.75091C7.7662 6.27073 7.75555 6.85129 7.75197 7.49583C7.74966 7.91003 8.08357 8.24768 8.49778 8.24999C8.91199 8.2523 9.24964 7.91838 9.25194 7.50418C9.25803 6.41068 9.28643 5.6356 9.39448 5.04735C9.4986 4.48054 9.66577 4.15246 9.90923 3.90901C10.186 3.63225 10.5746 3.4518 11.3083 3.35315C12.0637 3.25159 13.0648 3.25 14.5002 3.25H15.5002C16.9356 3.25 17.9367 3.25159 18.6921 3.35315C19.4259 3.4518 19.8144 3.63225 20.0912 3.90901C20.368 4.18577 20.5484 4.57435 20.6471 5.30812C20.7486 6.06347 20.7502 7.06459 20.7502 8.5V16.5C20.7502 17.9354 20.7486 18.9365 20.6471 19.6919C20.5484 20.4257 20.368 20.8142 20.0912 21.091C19.8144 21.3678 19.4259 21.5482 18.6921 21.6469C17.9367 21.7484 16.9356 21.75 15.5002 21.75H14.5002C13.0648 21.75 12.0637 21.7484 11.3083 21.6469C10.5746 21.5482 10.186 21.3678 9.90923 21.091C9.66577 20.8475 9.4986 20.5195 9.39448 19.9527C9.28643 19.3644 9.25803 18.5893 9.25194 17.4958C9.24964 17.0816 8.91199 16.7477 8.49778 16.75C8.08357 16.7523 7.74966 17.09 7.75197 17.5042Z" fill="#E68528"/>
</svg>
