<svg width="25" height="25" viewBox="0 0 25 25" fill="none" xmlns="http://www.w3.org/2000/svg">
<path fill-rule="evenodd" clip-rule="evenodd" d="M9.5 1.75C6.87665 1.75 4.75 3.87665 4.75 6.5C4.75 9.12335 6.87665 11.25 9.5 11.25C12.1234 11.25 14.25 9.12335 14.25 6.5C14.25 3.87665 12.1234 1.75 9.5 1.75ZM6.25 6.5C6.25 4.70507 7.70507 3.25 9.5 3.25C11.2949 3.25 12.75 4.70507 12.75 6.5C12.75 8.29493 11.2949 9.75 9.5 9.75C7.70507 9.75 6.25 8.29493 6.25 6.5Z" fill="#E68528"/>
<path d="M15.5 2.75C15.0858 2.75 14.75 3.08579 14.75 3.5C14.75 3.91421 15.0858 4.25 15.5 4.25C16.7426 4.25 17.75 5.25736 17.75 6.5C17.75 7.74264 16.7426 8.75 15.5 8.75C15.0858 8.75 14.75 9.08579 14.75 9.5C14.75 9.91421 15.0858 10.25 15.5 10.25C17.5711 10.25 19.25 8.57107 19.25 6.5C19.25 4.42893 17.5711 2.75 15.5 2.75Z" fill="#E68528"/>
<path fill-rule="evenodd" clip-rule="evenodd" d="M4.17815 14.0204C5.57752 13.2208 7.46067 12.75 9.5 12.75C11.5393 12.75 13.4225 13.2208 14.8219 14.0204C16.2 14.8079 17.25 16.0101 17.25 17.5C17.25 18.9899 16.2 20.1921 14.8219 20.9796C13.4225 21.7792 11.5393 22.25 9.5 22.25C7.46067 22.25 5.57752 21.7792 4.17815 20.9796C2.8 20.1921 1.75 18.9899 1.75 17.5C1.75 16.0101 2.8 14.8079 4.17815 14.0204ZM4.92236 15.3228C3.76701 15.983 3.25 16.7807 3.25 17.5C3.25 18.2193 3.76701 19.017 4.92236 19.6772C6.05649 20.3253 7.67334 20.75 9.5 20.75C11.3267 20.75 12.9435 20.3253 14.0776 19.6772C15.233 19.017 15.75 18.2193 15.75 17.5C15.75 16.7807 15.233 15.983 14.0776 15.3228C12.9435 14.6747 11.3267 14.25 9.5 14.25C7.67334 14.25 6.05649 14.6747 4.92236 15.3228Z" fill="#E68528"/>
<path d="M18.6607 13.7674C18.2561 13.6787 17.8561 13.9347 17.7674 14.3393C17.6787 14.7439 17.9347 15.1439 18.3393 15.2326C19.1317 15.4064 19.7649 15.7048 20.1829 16.0468C20.6014 16.3892 20.75 16.7237 20.75 17C20.75 17.2507 20.6294 17.545 20.2969 17.8539C19.962 18.165 19.4475 18.4524 18.7838 18.6523C18.3871 18.7717 18.1624 19.19 18.2818 19.5867C18.4013 19.9833 18.8196 20.208 19.2162 20.0886C20.0388 19.8409 20.7743 19.4578 21.3178 18.9529C21.8637 18.4457 22.25 17.7786 22.25 17C22.25 16.1352 21.7758 15.412 21.1328 14.8859C20.4893 14.3593 19.6225 13.9783 18.6607 13.7674Z" fill="#E68528"/>
</svg>
