<svg width="21" height="21" viewBox="0 0 21 21" fill="none" xmlns="http://www.w3.org/2000/svg">
<path fill-rule="evenodd" clip-rule="evenodd" d="M18 9.74777V13.9089C18 16.4894 18 17.7796 17.3882 18.3434C17.0965 18.6123 16.7282 18.7812 16.3359 18.8261C15.5133 18.9202 14.5527 18.0706 12.6315 16.3714C11.7823 15.6202 11.3577 15.2447 10.8664 15.1457C10.6245 15.097 10.3755 15.097 10.1336 15.1457C9.64229 15.2447 9.21768 15.6202 8.36847 16.3714C6.44728 18.0706 5.48668 18.9202 4.6641 18.8261C4.27179 18.7812 3.90351 18.6123 3.61176 18.3434C3 17.7796 3 16.4894 3 13.9089V9.74777C3 6.17393 3 4.38701 4.09835 3.27675C5.1967 2.1665 6.96447 2.1665 10.5 2.1665C14.0355 2.1665 15.8033 2.1665 16.9016 3.27675C18 4.38701 18 6.17393 18 9.74777ZM7.375 5.49984C7.375 5.15466 7.65482 4.87484 8 4.87484H13C13.3452 4.87484 13.625 5.15466 13.625 5.49984C13.625 5.84502 13.3452 6.12484 13 6.12484H8C7.65482 6.12484 7.375 5.84502 7.375 5.49984Z" fill="#E68528"/>
</svg>
