<svg width="37" height="37" viewBox="0 0 37 37" fill="none" xmlns="http://www.w3.org/2000/svg">
<path fill-rule="evenodd" clip-rule="evenodd" d="M18.4139 2.375H20.75C21.3713 2.375 21.875 2.87868 21.875 3.5C21.875 4.12132 21.3713 4.625 20.75 4.625H18.5C14.9327 4.625 12.3703 4.62739 10.4204 4.88956C8.50276 5.14737 7.34668 5.63771 6.49219 6.49219C5.63771 7.34668 5.14737 8.50276 4.88956 10.4204C4.62739 12.3703 4.625 14.9327 4.625 18.5C4.625 22.0673 4.62739 24.6297 4.88956 26.5796C5.14737 28.4972 5.63771 29.6533 6.49219 30.5078C7.34668 31.3623 8.50276 31.8526 10.4204 32.1104C12.3703 32.3726 14.9327 32.375 18.5 32.375C22.0673 32.375 24.6297 32.3726 26.5796 32.1104C28.4972 31.8526 29.6533 31.3623 30.5078 30.5078C31.3623 29.6533 31.8526 28.4972 32.1104 26.5796C32.3726 24.6297 32.375 22.0673 32.375 18.5V16.25C32.375 15.6287 32.8787 15.125 33.5 15.125C34.1213 15.125 34.625 15.6287 34.625 16.25V18.5861C34.625 22.0487 34.625 24.7622 34.3404 26.8794C34.049 29.0465 33.441 30.7566 32.0988 32.0988C30.7566 33.441 29.0465 34.049 26.8794 34.3404C24.7622 34.625 22.0487 34.625 18.5861 34.625H18.4139C14.9513 34.625 12.2378 34.625 10.1206 34.3404C7.95345 34.049 6.24342 33.441 4.9012 32.0988C3.55899 30.7566 2.95098 29.0465 2.65962 26.8794C2.37497 24.7622 2.37498 22.0487 2.375 18.5861V18.4139C2.37498 14.9513 2.37497 12.2378 2.65962 10.1206C2.95098 7.95345 3.55899 6.24342 4.9012 4.9012C6.24342 3.55899 7.95345 2.95098 10.1206 2.65962C12.2378 2.37497 14.9513 2.37498 18.4139 2.375ZM25.6558 3.91387C27.7076 1.86204 31.0343 1.86204 33.0861 3.91387C35.138 5.9657 35.138 9.29237 33.0861 11.3442L23.114 21.3164C22.5571 21.8734 22.2082 22.2223 21.8189 22.5259C21.3603 22.8836 20.8642 23.1902 20.3392 23.4404C19.8935 23.6528 19.4254 23.8088 18.6782 24.0578L14.3214 25.5101C13.517 25.7782 12.6302 25.5689 12.0307 24.9693C11.4311 24.3698 11.2218 23.483 11.4899 22.6786L12.9422 18.3218C13.1912 17.5746 13.3472 17.1065 13.5596 16.6608C13.8098 16.1358 14.1164 15.6397 14.4741 15.1811C14.7777 14.7918 15.1267 14.4429 15.6837 13.886L25.6558 3.91387ZM31.4951 5.50486C30.322 4.33171 28.4199 4.33171 27.2468 5.50486L26.6819 6.06979C26.7159 6.21359 26.7635 6.38491 26.8298 6.576C27.0448 7.19558 27.4516 8.01157 28.22 8.77999C28.9884 9.54841 29.8044 9.9552 30.424 10.1702C30.6151 10.2365 30.7864 10.2841 30.9302 10.3181L31.4951 9.75321C32.6683 8.58006 32.6683 6.67801 31.4951 5.50486ZM29.1577 12.0906C28.3838 11.7578 27.4822 11.2242 26.629 10.371C25.7758 9.51777 25.2422 8.61623 24.9094 7.84228L17.3263 15.4254C16.7015 16.0502 16.4565 16.2979 16.2482 16.5649C15.9911 16.8946 15.7706 17.2513 15.5907 17.6288C15.445 17.9344 15.333 18.2644 15.0536 19.1026L14.4058 21.0461L15.9539 22.5942L17.8974 21.9464C18.7356 21.667 19.0656 21.5549 19.3712 21.4093C19.7487 21.2294 20.1054 21.0089 20.4351 20.7518C20.7021 20.5435 20.9498 20.2985 21.5746 19.6737L29.1577 12.0906Z" fill="#E68528"/>
</svg>
