<svg width="21" height="21" viewBox="0 0 21 21" fill="none" xmlns="http://www.w3.org/2000/svg">
<path fill-rule="evenodd" clip-rule="evenodd" d="M19.4584 6.3335C19.4584 6.67867 19.1786 6.9585 18.8334 6.9585H2.16672C1.82154 6.9585 1.54172 6.67867 1.54172 6.3335C1.54172 5.98832 1.82154 5.7085 2.16672 5.7085H18.8334C19.1786 5.7085 19.4584 5.98832 19.4584 6.3335Z" fill="#336D7A"/>
<path fill-rule="evenodd" clip-rule="evenodd" d="M16.9584 10.5C16.9584 10.8452 16.6786 11.125 16.3334 11.125H4.66672C4.32154 11.125 4.04172 10.8452 4.04172 10.5C4.04172 10.1548 4.32154 9.875 4.66672 9.875H16.3334C16.6786 9.875 16.9584 10.1548 16.9584 10.5Z" fill="#336D7A"/>
<path fill-rule="evenodd" clip-rule="evenodd" d="M14.4584 14.6665C14.4584 15.0117 14.1786 15.2915 13.8334 15.2915H7.16672C6.82154 15.2915 6.54172 15.0117 6.54172 14.6665C6.54172 14.3213 6.82154 14.0415 7.16672 14.0415H13.8334C14.1786 14.0415 14.4584 14.3213 14.4584 14.6665Z" fill="#336D7A"/>
</svg>
