<svg width="25" height="25" viewBox="0 0 25 25" fill="none" xmlns="http://www.w3.org/2000/svg">
<path fill-rule="evenodd" clip-rule="evenodd" d="M19 1.75C19.4142 1.75 19.75 2.08579 19.75 2.5V5.25H22.5C22.9142 5.25 23.25 5.58579 23.25 6C23.25 6.41421 22.9142 6.75 22.5 6.75H19.75V9.5C19.75 9.91421 19.4142 10.25 19 10.25C18.5858 10.25 18.25 9.91421 18.25 9.5V6.75H15.5C15.0858 6.75 14.75 6.41421 14.75 6C14.75 5.58579 15.0858 5.25 15.5 5.25H18.25V2.5C18.25 2.08579 18.5858 1.75 19 1.75Z" fill="#E68528"/>
<path fill-rule="evenodd" clip-rule="evenodd" d="M12.5 1.75H12.4426C10.1342 1.74999 8.32519 1.74998 6.91371 1.93975C5.46897 2.13399 4.32895 2.53933 3.43414 3.43414C2.53933 4.32895 2.13399 5.46897 1.93975 6.91371C1.74998 8.32519 1.74999 10.1342 1.75 12.4426V12.5574C1.74999 14.8658 1.74998 16.6748 1.93975 18.0863C2.13399 19.531 2.53933 20.6711 3.43414 21.5659C4.32895 22.4607 5.46897 22.866 6.91371 23.0603C8.32519 23.25 10.1342 23.25 12.4426 23.25H12.5574C14.8658 23.25 16.6748 23.25 18.0863 23.0603C19.531 22.866 20.6711 22.4607 21.5659 21.5659C22.4607 20.6711 22.866 19.531 23.0603 18.0863C23.25 16.6748 23.25 14.8658 23.25 12.5574V12.5C23.25 12.0858 22.9142 11.75 22.5 11.75C22.0858 11.75 21.75 12.0858 21.75 12.5C21.75 14.8782 21.7484 16.5864 21.5736 17.8864C21.5667 17.9377 21.5596 17.9882 21.5522 18.0378L18.7782 15.5412C17.4788 14.3718 15.5437 14.2553 14.1134 15.2605L13.8152 15.4701C13.3182 15.8193 12.6421 15.7608 12.2126 15.3313L7.92282 11.0415C6.78741 9.90612 4.96613 9.84547 3.75771 10.9028L3.25098 11.3462C3.25552 9.55395 3.28124 8.19302 3.42637 7.11358C3.59825 5.83517 3.92514 5.06445 4.4948 4.4948C5.06445 3.92514 5.83517 3.59825 7.11358 3.42637C8.41356 3.25159 10.1218 3.25 12.5 3.25C12.9142 3.25 13.25 2.91421 13.25 2.5C13.25 2.08579 12.9142 1.75 12.5 1.75ZM3.42637 17.8864C3.59825 19.1648 3.92514 19.9355 4.4948 20.5052C5.06445 21.0749 5.83517 21.4018 7.11358 21.5736C8.41356 21.7484 10.1218 21.75 12.5 21.75C14.8782 21.75 16.5865 21.7484 17.8864 21.5736C19.1648 21.4018 19.9356 21.0749 20.5052 20.5052C20.7487 20.2617 20.9479 19.9814 21.1096 19.6404C21.0707 19.6166 21.0334 19.589 20.9983 19.5574L17.7748 16.6562C16.9951 15.9545 15.834 15.8846 14.9759 16.4877L14.6777 16.6973C13.5843 17.4657 12.0968 17.3369 11.1519 16.3919L6.86215 12.1022C6.28514 11.5252 5.35958 11.4944 4.74546 12.0317L3.25038 13.3399C3.25296 15.2884 3.27289 16.7448 3.42637 17.8864Z" fill="#E68528"/>
</svg>
