<svg width="25" height="25" viewBox="0 0 25 25" fill="none" xmlns="http://www.w3.org/2000/svg">
<path d="M9.5 17.75C9.08579 17.75 8.75 18.0858 8.75 18.5C8.75 18.9142 9.08579 19.25 9.5 19.25H15.5C15.9142 19.25 16.25 18.9142 16.25 18.5C16.25 18.0858 15.9142 17.75 15.5 17.75H9.5Z" fill="#E68528"/>
<path fill-rule="evenodd" clip-rule="evenodd" d="M12.5 1.75C11.7919 1.75 11.1485 1.95282 10.4506 2.29224C9.77585 2.62035 8.99642 3.10409 8.02286 3.70832L5.95628 4.9909C5.03509 5.56261 4.29744 6.0204 3.7289 6.45581C3.14015 6.90669 2.68795 7.36589 2.36131 7.96263C2.03535 8.55812 1.88857 9.19174 1.81819 9.9407C1.74999 10.6665 1.74999 11.5541 1.75 12.6672V14.2799C1.74999 16.1837 1.74998 17.6866 1.9027 18.8616C2.05937 20.067 2.38856 21.0401 3.13236 21.8094C3.87958 22.5824 4.83046 22.9277 6.00761 23.0914C7.14849 23.25 8.60556 23.25 10.4418 23.25H14.5581C16.3944 23.25 17.8515 23.25 18.9924 23.0914C20.1695 22.9277 21.1204 22.5824 21.8676 21.8094C22.6114 21.0401 22.9406 20.067 23.0973 18.8616C23.25 17.6866 23.25 16.1838 23.25 14.2799V12.6672C23.25 11.5541 23.25 10.6665 23.1818 9.9407C23.1114 9.19174 22.9646 8.55812 22.6387 7.96263C22.3121 7.36589 21.8599 6.90669 21.2711 6.45581C20.7026 6.0204 19.9649 5.56262 19.0437 4.99091L16.9771 3.70831C16.0036 3.10409 15.2241 2.62034 14.5494 2.29224C13.8515 1.95282 13.2081 1.75 12.5 1.75ZM8.77953 5.00412C9.79529 4.37371 10.5095 3.93153 11.1065 3.6412C11.6882 3.35833 12.1002 3.25 12.5 3.25C12.8998 3.25 13.3118 3.35833 13.8935 3.64119C14.4905 3.93153 15.2047 4.37371 16.2205 5.00412L18.2205 6.24537C19.1813 6.84169 19.8559 7.26135 20.3591 7.6467C20.8487 8.02164 21.1303 8.33106 21.3229 8.68285C21.5162 9.03589 21.629 9.44865 21.6884 10.081C21.7492 10.7286 21.75 11.5458 21.75 12.7039V14.225C21.75 16.1959 21.7485 17.6012 21.6098 18.6683C21.4736 19.7163 21.217 20.3244 20.7892 20.7669C20.3649 21.2058 19.7871 21.4664 18.7858 21.6057C17.7602 21.7483 16.4075 21.75 14.5 21.75H10.5C8.59247 21.75 7.23983 21.7483 6.21422 21.6057C5.21286 21.4664 4.63514 21.2058 4.21079 20.7669C3.78301 20.3244 3.52642 19.7163 3.39019 18.6683C3.25149 17.6012 3.25 16.1959 3.25 14.225V12.7039C3.25 11.5458 3.25076 10.7286 3.31161 10.081C3.37103 9.44865 3.48385 9.03589 3.67709 8.68285C3.86965 8.33106 4.15133 8.02164 4.64092 7.6467C5.1441 7.26135 5.81869 6.84169 6.77953 6.24537L8.77953 5.00412Z" fill="#E68528"/>
</svg>
