<svg width="21" height="21" viewBox="0 0 21 21" fill="none" xmlns="http://www.w3.org/2000/svg">
<g clip-path="url(#clip0_136_39)">
<mask id="mask0_136_39" style="mask-type:luminance" maskUnits="userSpaceOnUse" x="0" y="0" width="21" height="21">
<path d="M20.5 0.5H0.5V20.5H20.5V0.5Z" fill="white"/>
</mask>
<g mask="url(#mask0_136_39)">
<path d="M2.16675 10.4998C2.16675 6.57147 2.16675 4.60728 3.38714 3.38689C4.60752 2.1665 6.57171 2.1665 10.5001 2.1665C14.4285 2.1665 16.3926 2.1665 17.613 3.38689C18.8334 4.60728 18.8334 6.57147 18.8334 10.4998C18.8334 14.4282 18.8334 16.3924 17.613 17.6128C16.3926 18.8332 14.4285 18.8332 10.5001 18.8332C6.57171 18.8332 4.60752 18.8332 3.38714 17.6128C2.16675 16.3924 2.16675 14.4282 2.16675 10.4998Z" stroke="#E68528" stroke-width="1.5"/>
<path d="M13.8334 8.83334C14.7539 8.83334 15.5001 8.08715 15.5001 7.16667C15.5001 6.24619 14.7539 5.5 13.8334 5.5C12.9129 5.5 12.1667 6.24619 12.1667 7.16667C12.1667 8.08715 12.9129 8.83334 13.8334 8.83334Z" stroke="#E68528" stroke-width="1.5"/>
<path d="M2.16675 10.9169L3.6264 9.63976C4.3858 8.97529 5.53031 9.0134 6.24382 9.72691L9.81859 13.3017C10.3913 13.8744 11.2928 13.9525 11.9554 13.4868L12.2039 13.3121C13.1574 12.642 14.4475 12.7196 15.3138 13.4993L18.0001 15.9169" stroke="#E68528" stroke-width="1.5" stroke-linecap="round"/>
</g>
</g>
<defs>
<clipPath id="clip0_136_39">
<rect width="20" height="20" fill="white" transform="translate(0.5 0.5)"/>
</clipPath>
</defs>
</svg>
