<svg width="21" height="21" viewBox="0 0 21 21" fill="none" xmlns="http://www.w3.org/2000/svg">
<path d="M8 4.87533C7.65482 4.87533 7.375 5.15515 7.375 5.50033C7.375 5.8455 7.65482 6.12533 8 6.12533H13C13.3452 6.12533 13.625 5.8455 13.625 5.50033C13.625 5.15515 13.3452 4.87533 13 4.87533H8Z" fill="#E68528"/>
<path fill-rule="evenodd" clip-rule="evenodd" d="M10.4521 1.54199C8.72495 1.54198 7.3643 1.54197 6.30107 1.68647C5.20935 1.83484 4.33841 2.1459 3.65403 2.83769C2.97058 3.52855 2.6641 4.40617 2.51775 5.5065C2.37498 6.57992 2.37499 7.95418 2.375 9.70122V13.9495C2.37499 15.2058 2.37498 16.2005 2.45501 16.9493C2.53409 17.6894 2.70373 18.357 3.1882 18.8035C3.57688 19.1617 4.06842 19.3875 4.59304 19.4476C5.24927 19.5226 5.86199 19.2093 6.46557 18.7818C7.07636 18.3491 7.8173 17.6938 8.75212 16.8669L8.78254 16.84C9.21593 16.4567 9.50935 16.198 9.75416 16.019C9.99076 15.846 10.1352 15.7834 10.257 15.7589C10.4174 15.7266 10.5826 15.7266 10.743 15.7589C10.8648 15.7834 11.0092 15.846 11.2458 16.019C11.4906 16.198 11.7841 16.4567 12.2175 16.84L12.2479 16.867C13.1827 17.6938 13.9237 18.3491 14.5344 18.7818C15.138 19.2093 15.7507 19.5226 16.407 19.4476C16.9316 19.3875 17.4231 19.1617 17.8118 18.8035C18.2963 18.357 18.4659 17.6894 18.545 16.9493C18.625 16.2005 18.625 15.2058 18.625 13.9495V9.7012C18.625 7.95418 18.625 6.57991 18.4823 5.5065C18.3359 4.40617 18.0294 3.52855 17.346 2.83769C16.6616 2.1459 15.7907 1.83484 14.6989 1.68647C13.6357 1.54197 12.2751 1.54198 10.5479 1.54199H10.4521ZM4.54267 3.7168C4.95664 3.29834 5.51876 3.05428 6.4694 2.92508C7.43871 2.79335 8.71438 2.79199 10.5 2.79199C12.2856 2.79199 13.5613 2.79335 14.5306 2.92508C15.4812 3.05428 16.0434 3.29834 16.4573 3.7168C16.8722 4.13619 17.1149 4.70715 17.2432 5.67131C17.3737 6.65276 17.375 7.94385 17.375 9.74826V13.9094C17.375 15.2147 17.3741 16.1421 17.3021 16.8165C17.2282 17.5076 17.092 17.767 16.9647 17.8843C16.7699 18.0639 16.5248 18.1759 16.2649 18.2057C16.0985 18.2247 15.8196 18.1603 15.257 17.7617C14.7081 17.373 14.0176 16.7634 13.0456 15.9037L13.0238 15.8844C12.6177 15.5252 12.281 15.2274 11.9837 15.01C11.6728 14.7827 11.3594 14.608 10.9899 14.5335C10.6665 14.4684 10.3335 14.4684 10.0101 14.5335C9.64064 14.608 9.32715 14.7827 9.01633 15.01C8.71902 15.2274 8.38226 15.5252 7.97621 15.8844L7.95439 15.9037C6.98239 16.7634 6.29189 17.373 5.74304 17.7617C5.18038 18.1603 4.90151 18.2247 4.73515 18.2057C4.47516 18.1759 4.23014 18.0639 4.03531 17.8843C3.90803 17.767 3.77179 17.5076 3.69793 16.8165C3.62587 16.1421 3.625 15.2147 3.625 13.9094V9.74826C3.625 7.94385 3.6263 6.65276 3.75684 5.67131C3.88508 4.70715 4.12777 4.13619 4.54267 3.7168Z" fill="#E68528"/>
</svg>
