<svg width="25" height="25" viewBox="0 0 25 25" fill="none" xmlns="http://www.w3.org/2000/svg">
<path fill-rule="evenodd" clip-rule="evenodd" d="M12 3.25C7.16751 3.25 3.25 7.16751 3.25 12C3.25 16.8325 7.16751 20.75 12 20.75C16.8325 20.75 20.75 16.8325 20.75 12C20.75 7.16751 16.8325 3.25 12 3.25ZM1.75 12C1.75 6.33908 6.33908 1.75 12 1.75C17.6609 1.75 22.25 6.33908 22.25 12C22.25 14.5605 21.3111 16.9017 19.7589 18.6982L23.0303 21.9697C23.3232 22.2626 23.3232 22.7374 23.0303 23.0303C22.7374 23.3232 22.2626 23.3232 21.9697 23.0303L18.6982 19.7589C16.9017 21.3111 14.5605 22.25 12 22.25C6.33908 22.25 1.75 17.6609 1.75 12Z" fill="#336D7A"/>
</svg>
