<svg width="21" height="21" viewBox="0 0 21 21" fill="none" xmlns="http://www.w3.org/2000/svg">
<path fill-rule="evenodd" clip-rule="evenodd" d="M12.395 4.34001C12.4057 4.34953 12.4164 4.35908 12.4272 4.36865L15.7721 7.34185C16.3962 7.89659 16.9136 8.35646 17.2688 8.77392C17.6421 9.21268 17.908 9.68505 17.908 10.2696C17.908 10.8541 17.6421 11.3265 17.2688 11.7652C16.9136 12.1827 16.3962 12.6426 15.7721 13.1973L12.4272 16.1705C12.4164 16.1801 12.4057 16.1896 12.395 16.1992C12.1246 16.4395 11.8723 16.6639 11.6543 16.8078C11.4403 16.9492 11.051 17.1545 10.6149 16.9586C10.1789 16.7628 10.0737 16.3355 10.0371 16.0816C9.99988 15.8231 9.99994 15.4854 10 15.1236C10 15.1093 10 15.0949 10 15.0805V13.7734C8.79042 13.8568 7.56469 14.178 6.49252 14.7005C5.23173 15.3148 4.22483 16.1859 3.67837 17.2268C3.54471 17.4814 3.25458 17.6119 2.97539 17.5431C2.6962 17.4742 2.5 17.2238 2.5 16.9362C2.5 13.0021 3.65115 10.4405 5.29708 8.86562C6.73175 7.49291 8.4803 6.92964 10 6.81176V5.45862C10 5.44422 10 5.42985 10 5.41552C9.99994 5.05375 9.99988 4.7161 10.0371 4.45756C10.0737 4.20366 10.1789 3.77634 10.6149 3.58052C11.051 3.3847 11.4403 3.59 11.6543 3.73133C11.8723 3.87526 12.1246 4.09962 12.395 4.34001ZM11.2526 5.00038C11.3468 5.08113 11.4593 5.18072 11.5967 5.30291L14.907 8.24535C15.5746 8.83875 16.025 9.24108 16.3168 9.584C16.5971 9.91334 16.658 10.1057 16.658 10.2696C16.658 10.4335 16.5971 10.6258 16.3168 10.9552C16.025 11.2981 15.5746 11.7004 14.907 12.2938L11.5967 15.2363C11.4593 15.3584 11.3468 15.458 11.2526 15.5388C11.2503 15.4147 11.25 15.2645 11.25 15.0805V13.1267C11.25 12.7815 10.9702 12.5017 10.625 12.5017C9.03119 12.5017 7.37496 12.88 5.94498 13.5768C5.1793 13.9499 4.4665 14.4205 3.8616 14.9836C4.16891 12.4444 5.07701 10.8062 6.16125 9.76879C7.51129 8.47706 9.21702 8.03744 10.625 8.03744C10.9702 8.03744 11.25 7.75762 11.25 7.41244V5.45862C11.25 5.2747 11.2503 5.12445 11.2526 5.00038Z" fill="#E68528"/>
</svg>
