<svg width="25" height="25" viewBox="0 0 25 25" fill="none" xmlns="http://www.w3.org/2000/svg">
<path fill-rule="evenodd" clip-rule="evenodd" d="M11.4451 1.75H13.5549C14.9225 1.74998 16.0248 1.74996 16.8918 1.86652C17.7919 1.98754 18.5497 2.24643 19.1517 2.84835C19.5519 3.24855 19.8004 3.7177 19.9576 4.25175C20.1692 4.25503 20.3458 4.26426 20.5084 4.29001C21.8991 4.51027 22.9897 5.60094 23.21 6.99159C23.2502 7.24548 23.2501 7.53358 23.25 7.93528C23.25 7.95653 23.25 7.9781 23.25 8V17C23.25 17.0219 23.25 17.0435 23.25 17.0647C23.2501 17.4664 23.2502 17.7545 23.21 18.0084C22.9897 19.3991 21.8991 20.4897 20.5084 20.71C20.3458 20.7357 20.1692 20.745 19.9576 20.7482C19.8004 21.2823 19.5519 21.7514 19.1517 22.1517C18.5497 22.7536 17.7919 23.0125 16.8918 23.1335C16.0248 23.25 14.9225 23.25 13.5549 23.25H11.4451C10.0776 23.25 8.97524 23.25 8.10827 23.1335C7.20816 23.0125 6.45029 22.7536 5.84837 22.1517C5.44817 21.7514 5.1996 21.2823 5.04238 20.7482C4.83085 20.745 4.65422 20.7357 4.49161 20.71C3.10096 20.4897 2.01029 19.3991 1.79003 18.0084C1.74982 17.7545 1.7499 17.4664 1.75001 17.0647C1.75001 17.0435 1.75002 17.0219 1.75002 17V8C1.75002 7.9781 1.75001 7.95652 1.75001 7.93527C1.7499 7.53357 1.74982 7.24548 1.79003 6.99159C2.01029 5.60094 3.10096 4.51027 4.49161 4.29001C4.65422 4.26426 4.83086 4.25503 5.04238 4.25175C5.1996 3.7177 5.44817 3.24855 5.84837 2.84835C6.45029 2.24643 7.20816 1.98754 8.10827 1.86652C8.97524 1.74996 10.0776 1.74998 11.4451 1.75ZM4.80193 5.76229C4.77395 5.76483 4.74942 5.76788 4.72626 5.77155C3.97745 5.89015 3.39017 6.47743 3.27157 7.22624C3.25235 7.34758 3.25002 7.50684 3.25002 8V17C3.25002 17.4932 3.25235 17.6524 3.27157 17.7738C3.39017 18.5226 3.97745 19.1099 4.72626 19.2285C4.74942 19.2321 4.77395 19.2352 4.80193 19.2377C4.74999 18.4893 4.75 17.5995 4.75002 16.5549V15.3166V15.3151V8.44512C4.75 7.40052 4.74999 6.51069 4.80193 5.76229ZM6.25002 15.6209V16.5C6.25002 17.9354 6.25161 18.9365 6.35317 19.6919C6.45182 20.4257 6.63227 20.8142 6.90903 21.091C7.18579 21.3678 7.57436 21.5482 8.30814 21.6469C9.06349 21.7484 10.0646 21.75 11.5 21.75H13.5C14.9354 21.75 15.9365 21.7484 16.6919 21.6469C17.4257 21.5482 17.8142 21.3678 18.091 21.091C18.243 20.939 18.3659 20.7533 18.4622 20.4952L16.5804 18.5092C16.077 17.978 15.3816 17.9416 14.8519 18.3781L14.6322 18.5591C13.7159 19.3142 12.4548 19.1658 11.6952 18.2751L8.53435 14.5687C8.18431 14.1583 7.6851 14.1485 7.32776 14.5152L6.25002 15.6209ZM18.7292 18.5961L17.6692 17.4775C16.6406 16.392 15.0546 16.2673 13.898 17.2205L13.6783 17.4016C13.4227 17.6121 13.0897 17.5987 12.8365 17.3018L9.67567 13.5954C8.76393 12.5263 7.23915 12.457 6.25357 13.4682L6.25002 13.4719V8.5C6.25002 7.06458 6.25161 6.06347 6.35317 5.30812C6.45182 4.57435 6.63227 4.18577 6.90903 3.90901C7.18579 3.63225 7.57437 3.4518 8.30814 3.35315C9.06349 3.25159 10.0646 3.25 11.5 3.25H13.5C14.9354 3.25 15.9365 3.25159 16.6919 3.35315C17.4257 3.4518 17.8142 3.63225 18.091 3.90901C18.3678 4.18577 18.5482 4.57435 18.6469 5.30812C18.7484 6.06347 18.75 7.06458 18.75 8.5V16.5C18.75 17.3326 18.7495 18.019 18.7292 18.5961ZM20.1981 19.2377C20.2261 19.2352 20.2506 19.2321 20.2738 19.2285C21.0226 19.1099 21.6099 18.5226 21.7285 17.7738C21.7477 17.6524 21.75 17.4932 21.75 17V8C21.75 7.50684 21.7477 7.34758 21.7285 7.22624C21.6099 6.47743 21.0226 5.89015 20.2738 5.77155C20.2506 5.76788 20.2261 5.76483 20.1981 5.76229C20.25 6.51069 20.25 7.40053 20.25 8.44513V16.5549C20.25 17.5995 20.25 18.4893 20.1981 19.2377ZM15 6.25C14.5858 6.25 14.25 6.58579 14.25 7C14.25 7.41421 14.5858 7.75 15 7.75C15.4142 7.75 15.75 7.41421 15.75 7C15.75 6.58579 15.4142 6.25 15 6.25ZM12.75 7C12.75 5.75736 13.7574 4.75 15 4.75C16.2426 4.75 17.25 5.75736 17.25 7C17.25 8.24264 16.2426 9.25 15 9.25C13.7574 9.25 12.75 8.24264 12.75 7Z" fill="#E68528"/>
</svg>
